<svg width="300" height="180" viewBox="0 0 300 180" fill="none" xmlns="http://www.w3.org/2000/svg">
<rect width="300" height="180" fill="white"/>
<g clip-path="url(#clip0_118_33)">
<path fill-rule="evenodd" clip-rule="evenodd" d="M120.366 29.2109H161.012L195.46 65.1176V134.956C195.46 143.705 188.382 150.783 179.664 150.783H120.366C111.618 150.783 104.54 143.705 104.54 134.956V45.0378C104.539 36.289 111.617 29.2109 120.366 29.2109Z" fill="#E5252A"/>
<path opacity="0.302" fill-rule="evenodd" clip-rule="evenodd" d="M160.982 29.2109V64.8442H195.461L160.982 29.2109Z" fill="white"/>
<path d="M122.128 119.919V97.7129H131.576C133.915 97.7129 135.768 98.3508 137.166 99.6571C138.563 100.933 139.262 102.665 139.262 104.821C139.262 106.978 138.563 108.71 137.166 109.986C135.768 111.292 133.915 111.93 131.576 111.93H127.809V119.919H122.128ZM127.809 107.1H130.938C131.789 107.1 132.457 106.917 132.913 106.492C133.368 106.097 133.611 105.55 133.611 104.821C133.611 104.092 133.368 103.546 132.913 103.151C132.457 102.725 131.789 102.543 130.938 102.543H127.809V107.1ZM141.601 119.919V97.7129H149.468C151.018 97.7129 152.476 97.9255 153.843 98.3812C155.21 98.8368 156.455 99.4749 157.549 100.356C158.643 101.206 159.524 102.361 160.161 103.819C160.769 105.277 161.103 106.948 161.103 108.831C161.103 110.684 160.769 112.355 160.161 113.813C159.524 115.271 158.643 116.426 157.549 117.276C156.455 118.157 155.21 118.795 153.843 119.251C152.476 119.706 151.018 119.919 149.468 119.919H141.601ZM147.16 115.089H148.8C149.681 115.089 150.501 114.998 151.261 114.785C151.99 114.573 152.689 114.238 153.357 113.783C153.995 113.327 154.511 112.689 154.876 111.839C155.24 110.988 155.423 109.986 155.423 108.831C155.423 107.646 155.24 106.644 154.876 105.793C154.511 104.943 153.995 104.305 153.357 103.849C152.689 103.394 151.99 103.059 151.261 102.847C150.501 102.634 149.681 102.543 148.8 102.543H147.16V115.089ZM163.959 119.919V97.7129H179.755V102.543H169.639V106.097H177.72V110.897H169.639V119.919H163.959Z" fill="white"/>
</g>
<defs>
<clipPath id="clip0_118_33">
<rect width="121.572" height="121.572" fill="white" transform="translate(89.2139 29.2129)"/>
</clipPath>
</defs>
</svg>
