<svg width="50" height="50" viewBox="0 0 50 50" fill="none" xmlns="http://www.w3.org/2000/svg">
<path d="M7.03125 20.3125C4.87734 20.3125 3.125 21.7141 3.125 23.4375C3.125 25.1609 4.87734 26.5625 7.03125 26.5625C9.18516 26.5625 10.9375 25.1609 10.9375 23.4375C10.9375 21.7141 9.18516 20.3125 7.03125 20.3125ZM7.03125 25C5.76094 25 4.6875 24.2844 4.6875 23.4375C4.6875 22.5906 5.76094 21.875 7.03125 21.875C8.30156 21.875 9.375 22.5906 9.375 23.4375C9.375 24.2844 8.30156 25 7.03125 25Z" fill="#37A267"/>
<path d="M11.1941 35.0361C10.5738 35.7695 10.2059 36.683 10.1449 37.6416C10.1111 38.0902 10.1826 38.5405 10.3538 38.9565C10.525 39.3726 10.7911 39.7428 11.1308 40.0377C11.6247 40.4341 12.2414 40.6457 12.8746 40.6361C13.1439 40.6353 13.4122 40.6022 13.6738 40.5377C14.602 40.291 15.4264 39.7526 16.0253 39.0018C17.391 37.3361 17.4191 35.0955 16.0878 34.0018C14.7542 32.9057 12.5589 33.3736 11.1941 35.0361ZM15.0964 35.2072C15.7503 35.7447 15.6222 37.0283 14.8167 38.0096C14.4314 38.4978 13.9014 38.8514 13.3027 39.0197C13.1045 39.0803 12.895 39.0947 12.6904 39.0617C12.4858 39.0288 12.2914 38.9495 12.1222 38.8299C11.9724 38.6872 11.8571 38.5121 11.785 38.3182C11.713 38.1242 11.6862 37.9163 11.7066 37.7104C11.7555 37.0904 11.9985 36.5016 12.4011 36.0276C12.6319 35.7223 12.9249 35.4695 13.2606 35.2858C13.5963 35.1021 13.9672 34.9917 14.3488 34.9619C14.619 34.954 14.8835 35.0408 15.0964 35.2072Z" fill="#37A267"/>
<path d="M41.9586 5.69766C41.8121 5.55113 41.6134 5.46879 41.4062 5.46875H21.875C21.6678 5.46875 21.4691 5.55106 21.3226 5.69757C21.1761 5.84409 21.0938 6.0428 21.0938 6.25V17.4797L14.2375 24.2188H13.2219C13.2628 23.9604 13.2827 23.6991 13.2812 23.4375C13.2813 20.4227 10.4773 17.9688 7.03125 17.9688C3.58516 17.9688 0.78125 20.4227 0.78125 23.4375C0.78125 26.4523 3.58516 28.9062 7.03125 28.9062H13.1938L9.38281 33.5484C7.19531 36.2141 7.31406 39.9375 9.64531 41.85C10.5506 42.5832 11.6835 42.9772 12.8484 42.9641C13.811 42.9427 14.757 42.7099 15.6195 42.282C16.482 41.8542 17.2397 41.2418 17.8391 40.4883C18.8669 39.2636 19.4233 37.712 19.4078 36.1133C19.4086 35.3649 19.2452 34.6255 18.929 33.9472C18.6129 33.2688 18.1517 32.6682 17.5781 32.1875C17.376 32.0214 17.1607 31.8719 16.9344 31.7406L17.4977 31.0539L21.0938 30.668V43.75C21.0938 43.9572 21.1761 44.1559 21.3226 44.3024C21.4691 44.4489 21.6678 44.5312 21.875 44.5312H48.4375C48.6447 44.5312 48.8434 44.4489 48.9899 44.3024C49.1364 44.1559 49.2188 43.9572 49.2188 43.75V13.2812C49.2187 13.0741 49.1364 12.8754 48.9898 12.7289L41.9586 5.69766ZM42.1875 8.13594L46.5516 12.5H42.1875V8.13594ZM2.34375 23.4375C2.34375 21.2836 4.44609 19.5312 7.03125 19.5312C9.61641 19.5312 11.7188 21.2836 11.7188 23.4375C11.7186 23.8712 11.6326 24.3005 11.4656 24.7008C11.4164 24.8195 11.3972 24.9485 11.4098 25.0764C11.4224 25.2043 11.4663 25.3271 11.5377 25.434C11.6091 25.5409 11.7057 25.6285 11.8191 25.689C11.9324 25.7496 12.059 25.7813 12.1875 25.7812H12.8625C12.8397 25.9012 12.8453 26.0248 12.8789 26.1422L13.2453 27.3438H7.03125C4.44609 27.3438 2.34375 25.5914 2.34375 23.4375ZM14.9258 32.2656C14.963 32.3886 15.0299 32.5004 15.1207 32.5913C15.2114 32.6822 15.3232 32.7493 15.4461 32.7867C15.8618 32.9113 16.2487 33.1171 16.5844 33.3922C16.9829 33.7309 17.3023 34.1529 17.52 34.6285C17.7377 35.104 17.8485 35.6215 17.8445 36.1445C17.852 37.3701 17.4212 38.558 16.6297 39.4937C14.9891 41.4914 12.3 42.0055 10.6367 40.6383C8.97344 39.2711 8.95078 36.5359 10.5914 34.5375L15.0523 29.1023C15.1339 29.0029 15.1896 28.8848 15.2146 28.7586C15.2395 28.6324 15.2329 28.5019 15.1953 28.3789L14.5117 26.1367L27.6367 13.2367C28.0142 12.8645 28.4931 12.6121 29.0134 12.511C29.5338 12.41 30.0724 12.4649 30.5617 12.6687L15.0695 31.5461C14.9888 31.6453 14.9336 31.7627 14.9085 31.8881C14.8835 32.0134 14.8894 32.143 14.9258 32.2656ZM18.9102 29.3281L21.0938 26.6695V29.0969L18.9102 29.3281ZM22.6562 42.9688V24.7656L25.6695 21.0938H45.3125V19.5312H26.9531L28.2352 17.9688H45.3125V16.4062H29.5172L32.3367 12.9688C32.402 12.8894 32.4509 12.7979 32.4808 12.6996C32.5107 12.6013 32.5209 12.4981 32.5108 12.3958C32.5007 12.2936 32.4705 12.1943 32.422 12.1037C32.3735 12.0132 32.3076 11.933 32.2281 11.868C31.416 11.2002 30.3853 10.8567 29.335 10.9039C28.2846 10.9511 27.2889 11.3855 26.5398 12.1234L22.6562 15.9438V7.03125H40.625V13.2812C40.625 13.4885 40.7073 13.6872 40.8538 13.8337C41.0003 13.9802 41.199 14.0625 41.4062 14.0625H47.6562V42.9688H22.6562Z" fill="#37A267"/>
<path d="M26.5625 36.7188H28.125V41.4062H29.6875V36.7188H31.25V35.1562H26.5625V36.7188Z" fill="#37A267"/>
<path d="M36.7188 35.1562H33.5938C33.3865 35.1562 33.1878 35.2386 33.0413 35.3851C32.8948 35.5316 32.8125 35.7303 32.8125 35.9375V41.4062H34.375V39.8438H35.9375V41.4062H37.5V35.9375C37.5 35.7303 37.4177 35.5316 37.2712 35.3851C37.1247 35.2386 36.926 35.1562 36.7188 35.1562ZM34.375 38.2812V36.7188H35.9375V38.2812H34.375Z" fill="#37A267"/>
<path d="M42.1875 36.3953L41.4062 37.1766L40.625 36.3953V35.1562H39.0625V36.7188C39.0625 36.9259 39.1449 37.1246 39.2914 37.2711L40.3016 38.2812L39.2914 39.2914C39.1449 39.4379 39.0625 39.6366 39.0625 39.8438V41.4062H40.625V40.1672L41.4062 39.3859L42.1875 40.1672V41.4062H43.75V39.8438C43.75 39.6366 43.6676 39.4379 43.5211 39.2914L42.5109 38.2812L43.5211 37.2711C43.6676 37.1246 43.75 36.9259 43.75 36.7188V35.1562H42.1875V36.3953Z" fill="#37A267"/>
<path d="M25 22.6562H45.3125V24.2188H25V22.6562Z" fill="#37A267"/>
<path d="M25 25.7812H45.3125V27.3438H25V25.7812Z" fill="#37A267"/>
<path d="M25 28.9062H45.3125V30.4688H25V28.9062Z" fill="#37A267"/>
</svg>
